{"asset":{"copyright":"Copyright 2020 Trimble Inc. All Rights Reserved.","generator":"SketchUp GLTF Exporter","version":"2.0"},"accessors":[{"bufferView":0,"componentType":5126,"count":2,"type":"VEC3","max":[28.149606704711915,4.921259880065918,10.314960479736329],"min":[19.488189697265626,4.921259880065918,10.314960479736329]},{"bufferView":1,"componentType":5126,"count":2,"type":"VEC3","max":[28.149606704711915,31.496063232421876,10.314960479736329],"min":[28.149606704711915,26.57480239868164,10.314960479736329]},{"bufferView":2,"componentType":5126,"count":2,"type":"VEC3","max":[0.0,4.921259880065918,10.314960479736329],"min":[0.0,4.921259880065918,0.0]},{"bufferView":3,"componentType":5126,"count":2,"type":"VEC3","max":[19.488189697265626,10.0393705368042,14.763779640197754],"min":[19.488189697265626,0.0,14.763779640197754]},{"bufferView":4,"componentType":5126,"count":2,"type":"VEC3","max":[19.488189697265626,31.496063232421876,14.763779640197754],"min":[0.0,31.496063232421876,14.763779640197754]},{"bufferView":5,"componentType":5126,"count":2,"type":"VEC3","max":[19.488189697265626,31.496063232421876,14.763779640197754],"min":[19.488189697265626,21.456693649291993,14.763779640197754]},{"bufferView":6,"componentType":5126,"count":2,"type":"VEC3","max":[19.488189697265626,0.0,14.763779640197754],"min":[0.0,0.0,14.763779640197754]},{"bufferView":7,"componentType":5126,"count":2,"type":"VEC3","max":[28.149606704711915,31.496063232421876,0.0],"min":[0.0,31.496063232421876,0.0]},{"bufferView":8,"componentType":5126,"count":2,"type":"VEC3","max":[28.149606704711915,31.496063232421876,0.0],"min":[28.149606704711915,-1.4210854715202005e-14,0.0]},{"bufferView":9,"componentType":5126,"count":2,"type":"VEC3","max":[0.0,26.57480239868164,0.0],"min":[0.0,4.921259880065918,0.0]},{"bufferView":10,"componentType":5126,"count":2,"type":"VEC3","max":[0.0,4.921259880065918,0.0],"min":[0.0,0.0,0.0]},{"bufferView":11,"componentType":5126,"count":2,"type":"VEC3","max":[28.149606704711915,31.496063232421876,25.393701553344728],"min":[0.0,31.496063232421876,25.393701553344728]},{"bufferView":12,"componentType":5126,"count":2,"type":"VEC3","max":[22.55905532836914,4.921259880065918,25.393701553344728],"min":[0.0,4.921259880065918,25.393701553344728]},{"bufferView":13,"componentType":5126,"count":2,"type":"VEC3","max":[28.149606704711915,0.0,14.763779640197754],"min":[19.488189697265626,-1.4210854715202005e-14,14.763779640197754]},{"bufferView":14,"componentType":5126,"count":2,"type":"VEC3","max":[28.149606704711915,31.496063232421876,14.763779640197754],"min":[19.488189697265626,31.496063232421876,14.763779640197754]},{"bufferView":15,"componentType":5126,"count":2,"type":"VEC3","max":[28.149606704711915,0.0,0.0],"min":[0.0,-1.4210854715202005e-14,0.0]},{"bufferView":16,"componentType":5126,"count":2,"type":"VEC3","max":[0.0,31.496063232421876,0.0],"min":[0.0,26.57480239868164,0.0]},{"bufferView":17,"componentType":5126,"count":2,"type":"VEC3","max":[28.149606704711915,4.921259880065918,25.393701553344728],"min":[22.55905532836914,4.921259880065918,25.393701553344728]},{"bufferView":18,"componentType":5126,"count":2,"type":"VEC3","max":[28.149606704711915,4.921259880065918,25.393701553344728],"min":[28.149606704711915,-1.4210854715202005e-14,25.393701553344728]},{"bufferView":19,"componentType":5126,"count":2,"type":"VEC3","max":[28.149606704711915,26.57480239868164,25.393701553344728],"min":[28.149606704711915,4.921259880065918,25.393701553344728]},{"bufferView":20,"componentType":5126,"count":2,"type":"VEC3","max":[22.55905532836914,26.57480239868164,25.393701553344728],"min":[0.0,26.57480239868164,25.393701553344728]},{"bufferView":21,"componentType":5126,"count":2,"type":"VEC3","max":[0.0,4.921259880065918,25.393701553344728],"min":[0.0,0.0,25.393701553344728]},{"bufferView":22,"componentType":5126,"count":2,"type":"VEC3","max":[28.149606704711915,26.57480239868164,25.393701553344728],"min":[22.55905532836914,26.57480239868164,25.393701553344728]},{"bufferView":23,"componentType":5126,"count":2,"type":"VEC3","max":[22.55905532836914,26.57480239868164,25.393701553344728],"min":[22.55905532836914,4.921259880065918,25.393701553344728]},{"bufferView":24,"componentType":5126,"count":2,"type":"VEC3","max":[28.149606704711915,0.0,25.393701553344728],"min":[0.0,-1.4210854715202005e-14,25.393701553344728]},{"bufferView":25,"componentType":5126,"count":2,"type":"VEC3","max":[0.0,31.496063232421876,25.393701553344728],"min":[0.0,26.57480239868164,25.393701553344728]},{"bufferView":26,"componentType":5126,"count":2,"type":"VEC3","max":[28.149606704711915,31.496063232421876,25.393701553344728],"min":[28.149606704711915,26.57480239868164,25.393701553344728]},{"bufferView":27,"componentType":5126,"count":2,"type":"VEC3","max":[0.0,4.921259880065918,25.393701553344728],"min":[0.0,4.921259880065918,17.401575088500978]},{"bufferView":28,"componentType":5126,"count":2,"type":"VEC3","max":[19.488189697265626,21.456693649291993,14.763779640197754],"min":[19.488189697265626,10.0393705368042,14.763779640197754]},{"bufferView":29,"componentType":5126,"count":2,"type":"VEC3","max":[19.488189697265626,10.0393705368042,14.763779640197754],"min":[19.488189697265626,10.0393705368042,10.314960479736329]},{"bufferView":30,"componentType":5126,"count":2,"type":"VEC3","max":[19.488189697265626,21.456693649291993,10.314960479736329],"min":[19.488189697265626,10.0393705368042,10.314960479736329]},{"bufferView":31,"componentType":5126,"count":2,"type":"VEC3","max":[19.488189697265626,21.456693649291993,14.763779640197754],"min":[19.488189697265626,21.456693649291993,10.314960479736329]},{"bufferView":32,"componentType":5126,"count":2,"type":"VEC3","max":[19.488189697265626,26.57480239868164,10.314960479736329],"min":[19.488189697265626,21.456693649291993,10.314960479736329]},{"bufferView":33,"componentType":5126,"count":2,"type":"VEC3","max":[0.0,4.921259880065918,17.401575088500978],"min":[0.0,4.921259880065918,10.314960479736329]},{"bufferView":34,"componentType":5126,"count":2,"type":"VEC3","max":[0.0,26.57480239868164,17.401575088500978],"min":[0.0,4.921259880065918,17.401575088500978]},{"bufferView":35,"componentType":5126,"count":2,"type":"VEC3","max":[19.488189697265626,4.921259880065918,10.314960479736329],"min":[0.0,4.921259880065918,10.314960479736329]},{"bufferView":36,"componentType":5126,"count":2,"type":"VEC3","max":[28.149606704711915,26.57480239868164,10.314960479736329],"min":[28.149606704711915,4.921259880065918,10.314960479736329]},{"bufferView":37,"componentType":5126,"count":2,"type":"VEC3","max":[28.149606704711915,4.921259880065918,10.314960479736329],"min":[28.149606704711915,-1.4210854715202005e-14,10.314960479736329]},{"bufferView":38,"componentType":5126,"count":2,"type":"VEC3","max":[28.149606704711915,26.57480239868164,10.314960479736329],"min":[19.488189697265626,26.57480239868164,10.314960479736329]},{"bufferView":39,"componentType":5126,"count":2,"type":"VEC3","max":[28.149606704711915,31.496063232421876,10.314960479736329],"min":[28.149606704711915,31.496063232421876,0.0]},{"bufferView":40,"componentType":5126,"count":2,"type":"VEC3","max":[19.488189697265626,10.0393705368042,10.314960479736329],"min":[19.488189697265626,4.921259880065918,10.314960479736329]},{"bufferView":41,"componentType":5126,"count":2,"type":"VEC3","max":[19.488189697265626,26.57480239868164,10.314960479736329],"min":[0.0,26.57480239868164,10.314960479736329]},{"bufferView":42,"componentType":5126,"count":2,"type":"VEC3","max":[0.0,31.496063232421876,14.763779640197754],"min":[0.0,31.496063232421876,0.0]},{"bufferView":43,"componentType":5126,"count":2,"type":"VEC3","max":[0.0,26.57480239868164,25.393701553344728],"min":[0.0,26.57480239868164,17.401575088500978]},{"bufferView":44,"componentType":5126,"count":2,"type":"VEC3","max":[0.0,31.496063232421876,25.393701553344728],"min":[0.0,31.496063232421876,14.763779640197754]},{"bufferView":45,"componentType":5126,"count":2,"type":"VEC3","max":[0.0,0.0,14.763779640197754],"min":[0.0,0.0,0.0]},{"bufferView":46,"componentType":5126,"count":2,"type":"VEC3","max":[0.0,0.0,25.393701553344728],"min":[0.0,0.0,14.763779640197754]},{"bufferView":47,"componentType":5126,"count":2,"type":"VEC3","max":[28.149606704711915,-1.4210854715202005e-14,10.314960479736329],"min":[28.149606704711915,-1.4210854715202005e-14,0.0]},{"bufferView":48,"componentType":5126,"count":2,"type":"VEC3","max":[28.149606704711915,31.496063232421876,25.393701553344728],"min":[28.149606704711915,31.496063232421876,14.763779640197754]},{"bufferView":49,"componentType":5126,"count":2,"type":"VEC3","max":[28.149606704711915,-1.4210854715202005e-14,14.763779640197754],"min":[28.149606704711915,-1.4210854715202005e-14,10.314960479736329]},{"bufferView":50,"componentType":5126,"count":2,"type":"VEC3","max":[28.149606704711915,31.496063232421876,14.763779640197754],"min":[28.149606704711915,31.496063232421876,10.314960479736329]},{"bufferView":51,"componentType":5126,"count":2,"type":"VEC3","max":[28.149606704711915,-1.4210854715202005e-14,25.393701553344728],"min":[28.149606704711915,-1.4210854715202005e-14,14.763779640197754]},{"bufferView":52,"componentType":5126,"count":2,"type":"VEC3","max":[0.0,26.57480239868164,17.401575088500978],"min":[0.0,26.57480239868164,10.314960479736329]},{"bufferView":53,"componentType":5126,"count":2,"type":"VEC3","max":[0.0,26.57480239868164,10.314960479736329],"min":[0.0,26.57480239868164,0.0]},{"bufferView":54,"componentType":5123,"count":6,"type":"SCALAR"},{"bufferView":55,"componentType":5126,"count":6,"type":"VEC3","max":[21.763778686523439,21.65354347229004,0.0],"min":[0.0,0.0,0.0]},{"bufferView":56,"componentType":5126,"count":6,"type":"VEC3","max":[0.0,0.0,1.0],"min":[0.0,0.0,1.0]},{"bufferView":57,"componentType":5123,"count":6,"type":"SCALAR"},{"bufferView":58,"componentType":5126,"count":6,"type":"VEC3","max":[21.763778686523439,21.65354347229004,0.0],"min":[0.0,0.0,0.0]},{"bufferView":59,"componentType":5126,"count":6,"type":"VEC3","max":[0.0,0.0,1.0],"min":[0.0,0.0,1.0]}],"bufferViews":[{"buffer":0,"byteOffset":0,"byteLength":24,"target":34962},{"buffer":0,"byteOffset":24,"byteLength":24,"target":34962},{"buffer":0,"byteOffset":48,"byteLength":24,"target":34962},{"buffer":0,"byteOffset":72,"byteLength":24,"target":34962},{"buffer":0,"byteOffset":96,"byteLength":24,"target":34962},{"buffer":0,"byteOffset":120,"byteLength":24,"target":34962},{"buffer":0,"byteOffset":144,"byteLength":24,"target":34962},{"buffer":0,"byteOffset":168,"byteLength":24,"target":34962},{"buffer":0,"byteOffset":192,"byteLength":24,"target":34962},{"buffer":0,"byteOffset":216,"byteLength":24,"target":34962},{"buffer":0,"byteOffset":240,"byteLength":24,"target":34962},{"buffer":0,"byteOffset":264,"byteLength":24,"target":34962},{"buffer":0,"byteOffset":288,"byteLength":24,"target":34962},{"buffer":0,"byteOffset":312,"byteLength":24,"target":34962},{"buffer":0,"byteOffset":336,"byteLength":24,"target":34962},{"buffer":0,"byteOffset":360,"byteLength":24,"target":34962},{"buffer":0,"byteOffset":384,"byteLength":24,"target":34962},{"buffer":0,"byteOffset":408,"byteLength":24,"target":34962},{"buffer":0,"byteOffset":432,"byteLength":24,"target":34962},{"buffer":0,"byteOffset":456,"byteLength":24,"target":34962},{"buffer":0,"byteOffset":480,"byteLength":24,"target":34962},{"buffer":0,"byteOffset":504,"byteLength":24,"target":34962},{"buffer":0,"byteOffset":528,"byteLength":24,"target":34962},{"buffer":0,"byteOffset":552,"byteLength":24,"target":34962},{"buffer":0,"byteOffset":576,"byteLength":24,"target":34962},{"buffer":0,"byteOffset":600,"byteLength":24,"target":34962},{"buffer":0,"byteOffset":624,"byteLength":24,"target":34962},{"buffer":0,"byteOffset":648,"byteLength":24,"target":34962},{"buffer":0,"byteOffset":672,"byteLength":24,"target":34962},{"buffer":0,"byteOffset":696,"byteLength":24,"target":34962},{"buffer":0,"byteOffset":720,"byteLength":24,"target":34962},{"buffer":0,"byteOffset":744,"byteLength":24,"target":34962},{"buffer":0,"byteOffset":768,"byteLength":24,"target":34962},{"buffer":0,"byteOffset":792,"byteLength":24,"target":34962},{"buffer":0,"byteOffset":816,"byteLength":24,"target":34962},{"buffer":0,"byteOffset":840,"byteLength":24,"target":34962},{"buffer":0,"byteOffset":864,"byteLength":24,"target":34962},{"buffer":0,"byteOffset":888,"byteLength":24,"target":34962},{"buffer":0,"byteOffset":912,"byteLength":24,"target":34962},{"buffer":0,"byteOffset":936,"byteLength":24,"target":34962},{"buffer":0,"byteOffset":960,"byteLength":24,"target":34962},{"buffer":0,"byteOffset":984,"byteLength":24,"target":34962},{"buffer":0,"byteOffset":1008,"byteLength":24,"target":34962},{"buffer":0,"byteOffset":1032,"byteLength":24,"target":34962},{"buffer":0,"byteOffset":1056,"byteLength":24,"target":34962},{"buffer":0,"byteOffset":1080,"byteLength":24,"target":34962},{"buffer":0,"byteOffset":1104,"byteLength":24,"target":34962},{"buffer":0,"byteOffset":1128,"byteLength":24,"target":34962},{"buffer":0,"byteOffset":1152,"byteLength":24,"target":34962},{"buffer":0,"byteOffset":1176,"byteLength":24,"target":34962},{"buffer":0,"byteOffset":1200,"byteLength":24,"target":34962},{"buffer":0,"byteOffset":1224,"byteLength":24,"target":34962},{"buffer":0,"byteOffset":1248,"byteLength":24,"target":34962},{"buffer":0,"byteOffset":1272,"byteLength":24,"target":34962},{"buffer":0,"byteOffset":1296,"byteLength":12,"target":34963},{"buffer":0,"byteOffset":1308,"byteLength":72,"target":34962},{"buffer":0,"byteOffset":1380,"byteLength":72,"target":34962},{"buffer":0,"byteOffset":1452,"byteLength":12,"target":34963},{"buffer":0,"byteOffset":1464,"byteLength":72,"target":34962},{"buffer":0,"byteOffset":1536,"byteLength":72,"target":34962}],"buffers":[{"byteLength":1608,"uri":"0.bin"}],"materials":[{"pbrMetallicRoughness":{"baseColorFactor":[0.0,0.0,0.0,1.0],"metallicFactor":0.20000000298023225,"roughnessFactor":0.4000000059604645},"doubleSided":true},{"pbrMetallicRoughness":{"baseColorFactor":[1.0,0.0,0.0,1.0]},"name":"Color_A01","doubleSided":true},{"pbrMetallicRoughness":{"baseColorFactor":[1.0,0.0,0.0,1.0]},"name":"Color_A01","doubleSided":true}],"meshes":[{"name":"Edge","primitives":[{"attributes":{"POSITION":0},"material":0,"mode":1},{"attributes":{"POSITION":1},"material":0,"mode":1},{"attributes":{"POSITION":2},"material":0,"mode":1},{"attributes":{"POSITION":3},"material":0,"mode":1},{"attributes":{"POSITION":4},"material":0,"mode":1},{"attributes":{"POSITION":5},"material":0,"mode":1},{"attributes":{"POSITION":6},"material":0,"mode":1},{"attributes":{"POSITION":7},"material":0,"mode":1},{"attributes":{"POSITION":8},"material":0,"mode":1},{"attributes":{"POSITION":9},"material":0,"mode":1},{"attributes":{"POSITION":10},"material":0,"mode":1},{"attributes":{"POSITION":11},"material":0,"mode":1},{"attributes":{"POSITION":12},"material":0,"mode":1},{"attributes":{"POSITION":13},"material":0,"mode":1},{"attributes":{"POSITION":14},"material":0,"mode":1},{"attributes":{"POSITION":15},"material":0,"mode":1},{"attributes":{"POSITION":16},"material":0,"mode":1},{"attributes":{"POSITION":17},"material":0,"mode":1},{"attributes":{"POSITION":18},"material":0,"mode":1},{"attributes":{"POSITION":19},"material":0,"mode":1},{"attributes":{"POSITION":20},"material":0,"mode":1},{"attributes":{"POSITION":21},"material":0,"mode":1},{"attributes":{"POSITION":22},"material":0,"mode":1},{"attributes":{"POSITION":23},"material":0,"mode":1},{"attributes":{"POSITION":24},"material":0,"mode":1},{"attributes":{"POSITION":25},"material":0,"mode":1},{"attributes":{"POSITION":26},"material":0,"mode":1},{"attributes":{"POSITION":27},"material":0,"mode":1},{"attributes":{"POSITION":28},"material":0,"mode":1},{"attributes":{"POSITION":29},"material":0,"mode":1},{"attributes":{"POSITION":30},"material":0,"mode":1},{"attributes":{"POSITION":31},"material":0,"mode":1},{"attributes":{"POSITION":32},"material":0,"mode":1},{"attributes":{"POSITION":33},"material":0,"mode":1},{"attributes":{"POSITION":34},"material":0,"mode":1},{"attributes":{"POSITION":35},"material":0,"mode":1},{"attributes":{"POSITION":36},"material":0,"mode":1},{"attributes":{"POSITION":37},"material":0,"mode":1},{"attributes":{"POSITION":38},"material":0,"mode":1},{"attributes":{"POSITION":39},"material":0,"mode":1},{"attributes":{"POSITION":40},"material":0,"mode":1},{"attributes":{"POSITION":41},"material":0,"mode":1},{"attributes":{"POSITION":42},"material":0,"mode":1},{"attributes":{"POSITION":43},"material":0,"mode":1},{"attributes":{"POSITION":44},"material":0,"mode":1},{"attributes":{"POSITION":45},"material":0,"mode":1},{"attributes":{"POSITION":46},"material":0,"mode":1},{"attributes":{"POSITION":47},"material":0,"mode":1},{"attributes":{"POSITION":48},"material":0,"mode":1},{"attributes":{"POSITION":49},"material":0,"mode":1},{"attributes":{"POSITION":50},"material":0,"mode":1},{"attributes":{"POSITION":51},"material":0,"mode":1},{"attributes":{"POSITION":52},"material":0,"mode":1},{"attributes":{"POSITION":53},"material":0,"mode":1}]},{"primitives":[{"attributes":{"NORMAL":56,"POSITION":55},"indices":54,"material":1}]},{"primitives":[{"attributes":{"POSITION":58,"NORMAL":59},"indices":57,"material":2}]}],"nodes":[{"mesh":0,"name":"Edge"},{"children":[0],"name":"433682"},{"matrix":[0.8962596654891968,0.0,-0.11481351405382157,0.0,0.0,0.9800000190734863,0.0,0.0,0.12706461548805238,0.0,0.9918944239616394,0.0,8.526512829121202e-14,5.043307304382324,17.401575088500978,1.0],"mesh":1,"name":"433683"},{"matrix":[-0.22585369646549226,0.0,-0.7981500625610352,0.0,0.0,0.9800000190734863,0.0,0.0,0.9622179865837097,0.0,-0.2722802460193634,0.0,24.421428680419923,5.043307304382324,32.2735595703125,1.0],"mesh":2,"name":"433684"},{"children":[1,2,3],"matrix":[6.123234262925839e-17,-1.0,0.0,0.0,1.0,6.123234262925839e-17,-0.0,0.0,0.0,0.0,1.0,0.0,-16.46500015258789,16.139577865600587,0.0,1.0],"name":"433033"},{"children":[4],"matrix":[0.02539999969303608,0.0,0.0,0.0,0.0,0.0,-0.02539999969303608,0.0,0.0,0.02539999969303608,0.0,0.0,0.0,0.0,0.0,1.0],"name":"Root Node"}],"scenes":[{"nodes":[5]}],"scene":0}